<svg width="22" height="18" viewBox="0 0 22 18" fill="none" xmlns="http://www.w3.org/2000/svg">
<path d="M1.83333 8.20011H18.4579L12.0921 2.37938C11.7587 2.07458 11.7458 1.56819 12.0633 1.24819C12.3804 0.928596 12.9079 0.915796 13.2417 1.22059L20.5117 7.86851C20.8263 8.17091 21 8.5725 21 9.0001C21 9.42729 20.8263 9.82929 20.4971 10.1449L13.2413 16.7792C13.08 16.9268 12.8733 17 12.6667 17C12.4467 17 12.2267 16.9168 12.0629 16.7516C11.7454 16.4316 11.7583 15.9256 12.0917 15.6208L18.4842 9.80009H1.83333C1.37333 9.80009 1 9.44169 1 9.0001C1 8.5585 1.37333 8.20011 1.83333 8.20011Z" fill="#222222" stroke="#222222" stroke-width="0.5"/>
</svg>
