<svg width="22" height="18" viewBox="0 0 22 18" fill="none" xmlns="http://www.w3.org/2000/svg">
<path d="M20.1667 8.20011H3.54208L9.90792 2.37938C10.2413 2.07458 10.2542 1.56819 9.93667 1.24819C9.61958 0.928596 9.09208 0.915796 8.75833 1.22059L1.48833 7.86851C1.17375 8.17091 1 8.5725 1 9.0001C1 9.42729 1.17375 9.82929 1.50292 10.1449L8.75875 16.7792C8.92 16.9268 9.12667 17 9.33333 17C9.55333 17 9.77333 16.9168 9.93708 16.7516C10.2546 16.4316 10.2417 15.9256 9.90833 15.6208L3.51583 9.80009H20.1667C20.6267 9.80009 21 9.44169 21 9.0001C21 8.5585 20.6267 8.20011 20.1667 8.20011Z" fill="#B9B9B9" stroke="#B9B9B9" stroke-width="0.5"/>
</svg>
