<svg width="18" height="22" viewBox="0 0 18 22" fill="none" xmlns="http://www.w3.org/2000/svg">
<path d="M8.20011 20.1667V3.54208L2.37938 9.90792C2.07458 10.2413 1.56819 10.2542 1.24819 9.93667C0.928596 9.61958 0.915796 9.09208 1.22059 8.75833L7.86851 1.48833C8.17091 1.17375 8.5725 1 9.0001 1C9.42729 1 9.82929 1.17375 10.1449 1.50292L16.7792 8.75875C16.9268 8.92 17 9.12667 17 9.33333C17 9.55333 16.9168 9.77333 16.7516 9.93708C16.4316 10.2546 15.9256 10.2417 15.6208 9.90833L9.80009 3.51583L9.80009 20.1667C9.80009 20.6267 9.44169 21 9.0001 21C8.5585 21 8.20011 20.6267 8.20011 20.1667Z" fill="#222222" stroke="#222222" stroke-width="0.5"/>
</svg>
