<svg width="16" height="16" viewBox="0 0 16 16" fill="none" xmlns="http://www.w3.org/2000/svg">
<path d="M14.6654 3.33332V5.99999L7.9987 8.66666L1.33203 5.99999V3.33332C1.33203 3.15651 1.40227 2.98694 1.52729 2.86192C1.65232 2.73689 1.82189 2.66666 1.9987 2.66666H13.9987C14.1755 2.66666 14.3451 2.73689 14.4701 2.86192C14.5951 2.98694 14.6654 3.15651 14.6654 3.33332ZM1.33203 7.43599V12.6667C1.33203 12.8435 1.40227 13.013 1.52729 13.1381C1.65232 13.2631 1.82189 13.3333 1.9987 13.3333H13.9987C14.1755 13.3333 14.3451 13.2631 14.4701 13.1381C14.5951 13.013 14.6654 12.8435 14.6654 12.6667V7.43599L7.9987 10.1027L1.33203 7.43599Z" fill="#222222"/>
</svg>
