<svg width="42" height="42" viewBox="0 0 42 42" fill="none" xmlns="http://www.w3.org/2000/svg">
<path d="M12.25 22.3125C10.5586 22.3125 9.1875 23.6836 9.1875 25.375C9.1875 27.0664 10.5586 28.4375 12.25 28.4375C13.9414 28.4375 15.3125 27.0664 15.3125 25.375C15.3125 23.6836 13.9414 22.3125 12.25 22.3125ZM6.5625 25.375C6.5625 22.2339 9.10888 19.6875 12.25 19.6875C15.3911 19.6875 17.9375 22.2339 17.9375 25.375C17.9375 28.5161 15.3911 31.0625 12.25 31.0625C9.10888 31.0625 6.5625 28.5161 6.5625 25.375Z" fill="#222222"/>
<path d="M29.75 22.3125C28.0586 22.3125 26.6875 23.6836 26.6875 25.375C26.6875 27.0664 28.0586 28.4375 29.75 28.4375C31.4414 28.4375 32.8125 27.0664 32.8125 25.375C32.8125 23.6836 31.4414 22.3125 29.75 22.3125ZM24.0625 25.375C24.0625 22.2339 26.6089 19.6875 29.75 19.6875C32.8911 19.6875 35.4375 22.2339 35.4375 25.375C35.4375 28.5161 32.8911 31.0625 29.75 31.0625C26.6089 31.0625 24.0625 28.5161 24.0625 25.375Z" fill="#222222"/>
<path d="M21 4.8125C19.3086 4.8125 17.9375 6.18363 17.9375 7.875C17.9375 9.56637 19.3086 10.9375 21 10.9375C22.6914 10.9375 24.0625 9.56637 24.0625 7.875C24.0625 6.18363 22.6914 4.8125 21 4.8125ZM15.3125 7.875C15.3125 4.73388 17.8589 2.1875 21 2.1875C24.1411 2.1875 26.6875 4.73388 26.6875 7.875C26.6875 11.0161 24.1411 13.5625 21 13.5625C17.8589 13.5625 15.3125 11.0161 15.3125 7.875Z" fill="#222222"/>
<path d="M2.1875 38.5C2.1875 32.9427 6.69263 28.4375 12.25 28.4375C17.8073 28.4375 22.3125 32.9427 22.3125 38.5C22.3125 39.2249 21.7249 39.8125 21 39.8125C20.2751 39.8125 19.6875 39.2249 19.6875 38.5C19.6875 34.3924 16.3576 31.0625 12.25 31.0625C8.14238 31.0625 4.8125 34.3924 4.8125 38.5C4.8125 39.2249 4.22487 39.8125 3.5 39.8125C2.77513 39.8125 2.1875 39.2249 2.1875 38.5Z" fill="#222222"/>
<path d="M19.6875 38.5C19.6875 32.9427 24.1927 28.4375 29.75 28.4375C35.3073 28.4375 39.8125 32.9427 39.8125 38.5C39.8125 39.2249 39.2249 39.8125 38.5 39.8125C37.7751 39.8125 37.1875 39.2249 37.1875 38.5C37.1875 34.3924 33.8576 31.0625 29.75 31.0625C25.6424 31.0625 22.3125 34.3924 22.3125 38.5C22.3125 39.2249 21.7249 39.8125 21 39.8125C20.2751 39.8125 19.6875 39.2249 19.6875 38.5Z" fill="#222222"/>
<path d="M10.9375 21C10.9375 15.4427 15.4427 10.9375 21 10.9375C26.5573 10.9375 31.0625 15.4427 31.0625 21C31.0625 21.7249 30.4749 22.3125 29.75 22.3125C29.0251 22.3125 28.4375 21.7249 28.4375 21C28.4375 16.8924 25.1076 13.5625 21 13.5625C16.8924 13.5625 13.5625 16.8924 13.5625 21C13.5625 21.7249 12.9749 22.3125 12.25 22.3125C11.5251 22.3125 10.9375 21.7249 10.9375 21Z" fill="#222222"/>
</svg>
