<svg width="42" height="42" viewBox="0 0 42 42" fill="none" xmlns="http://www.w3.org/2000/svg">
<path fill-rule="evenodd" clip-rule="evenodd" d="M6.64978 6.83034C5.20587 7.5523 4.8125 8.30684 4.8125 8.75C4.8125 9.19316 5.20587 9.9477 6.64978 10.6697C8.01519 11.3524 9.99333 11.8125 12.25 11.8125C14.5067 11.8125 16.4848 11.3524 17.8502 10.6697C19.2941 9.9477 19.6875 9.19316 19.6875 8.75C19.6875 8.30684 19.2941 7.5523 17.8502 6.83034C16.4848 6.14764 14.5067 5.6875 12.25 5.6875C9.99333 5.6875 8.01519 6.14764 6.64978 6.83034ZM5.47585 4.48247C7.27732 3.58174 9.67418 3.0625 12.25 3.0625C14.8258 3.0625 17.2227 3.58174 19.0242 4.48247C20.7471 5.34395 22.3125 6.77691 22.3125 8.75C22.3125 10.7231 20.7471 12.156 19.0242 13.0175C17.2227 13.9183 14.8258 14.4375 12.25 14.4375C9.67418 14.4375 7.27732 13.9183 5.47585 13.0175C3.75288 12.156 2.1875 10.7231 2.1875 8.75C2.1875 6.77691 3.75288 5.34395 5.47585 4.48247Z" fill="#222222"/>
<path fill-rule="evenodd" clip-rule="evenodd" d="M3.5 7.4375C4.22487 7.4375 4.8125 8.02513 4.8125 8.75H2.1875C2.1875 8.02513 2.77513 7.4375 3.5 7.4375ZM22.3125 8.75V14.875C22.3125 16.8481 20.7471 18.281 19.0241 19.1425C17.2227 20.0433 14.8258 20.5625 12.25 20.5625C9.67417 20.5625 7.27731 20.0433 5.47585 19.1425C3.75289 18.281 2.1875 16.8481 2.1875 14.875V8.75H4.8125V14.875C4.8125 15.3181 5.20587 16.0727 6.64978 16.7946C8.01519 17.4774 9.99333 17.9375 12.25 17.9375C14.5066 17.9375 16.4848 17.4774 17.8502 16.7946C19.2941 16.0727 19.6875 15.3181 19.6875 14.875V8.75H22.3125ZM22.3125 8.75C22.3125 8.02513 21.7249 7.4375 21 7.4375C20.2751 7.4375 19.6875 8.02513 19.6875 8.75H22.3125Z" fill="#222222"/>
<path fill-rule="evenodd" clip-rule="evenodd" d="M3.5 13.5625C4.22487 13.5625 4.8125 14.1501 4.8125 14.875H2.1875C2.1875 14.1501 2.77513 13.5625 3.5 13.5625ZM22.3125 14.875V21C22.3125 22.9731 20.7471 24.406 19.0241 25.2675C17.2227 26.1683 14.8258 26.6875 12.25 26.6875C9.67417 26.6875 7.27731 26.1683 5.47585 25.2675C3.75289 24.406 2.1875 22.9731 2.1875 21V14.875H4.8125V21C4.8125 21.4431 5.20587 22.1977 6.64978 22.9197C8.01519 23.6024 9.99333 24.0625 12.25 24.0625C14.5066 24.0625 16.4848 23.6024 17.8502 22.9196C19.2941 22.1977 19.6875 21.4431 19.6875 21V14.875H22.3125ZM22.3125 14.875C22.3125 14.1501 21.7249 13.5625 21 13.5625C20.2751 13.5625 19.6875 14.1501 19.6875 14.875H22.3125Z" fill="#222222"/>
<path fill-rule="evenodd" clip-rule="evenodd" d="M3.5 19.6875C4.22487 19.6875 4.8125 20.2751 4.8125 21H2.1875C2.1875 20.2751 2.77513 19.6875 3.5 19.6875ZM22.3125 21V27.125C22.3125 29.0981 20.7471 30.531 19.0241 31.3925C17.2227 32.2933 14.8258 32.8125 12.25 32.8125C9.67417 32.8125 7.27731 32.2933 5.47585 31.3925C3.75289 30.531 2.1875 29.0981 2.1875 27.125V21H4.8125V27.125C4.8125 27.5681 5.20587 28.3227 6.64978 29.0447C8.01519 29.7274 9.99333 30.1875 12.25 30.1875C14.5066 30.1875 16.4848 29.7274 17.8502 29.0446C19.2941 28.3227 19.6875 27.5681 19.6875 27.125V21H22.3125ZM22.3125 21C22.3125 20.2751 21.7249 19.6875 21 19.6875C20.2751 19.6875 19.6875 20.2751 19.6875 21H22.3125Z" fill="#222222"/>
<path fill-rule="evenodd" clip-rule="evenodd" d="M3.5 25.8125C4.22487 25.8125 4.8125 26.4001 4.8125 27.125H2.1875C2.1875 26.4001 2.77513 25.8125 3.5 25.8125ZM22.3125 27.125V33.25C22.3125 35.2231 20.7471 36.656 19.0241 37.5175C17.2227 38.4183 14.8258 38.9375 12.25 38.9375C9.67417 38.9375 7.27731 38.4183 5.47585 37.5175C3.75289 36.656 2.1875 35.2231 2.1875 33.25V27.125H4.8125V33.25C4.8125 33.6931 5.20587 34.4477 6.64978 35.1697C8.01519 35.8524 9.99333 36.3125 12.25 36.3125C14.5066 36.3125 16.4848 35.8524 17.8502 35.1697C19.2941 34.4477 19.6875 33.6931 19.6875 33.25V27.125H22.3125ZM22.3125 27.125C22.3125 26.4001 21.7249 25.8125 21 25.8125C20.2751 25.8125 19.6875 26.4001 19.6875 27.125H22.3125Z" fill="#222222"/>
<path fill-rule="evenodd" clip-rule="evenodd" d="M24.1498 19.0803C22.7059 19.8023 22.3125 20.5568 22.3125 21C22.3125 21.4432 22.7059 22.1977 24.1498 22.9197C25.5152 23.6024 27.4933 24.0625 29.75 24.0625C32.0067 24.0625 33.9848 23.6024 35.3502 22.9197C36.7941 22.1977 37.1875 21.4432 37.1875 21C37.1875 20.5568 36.7941 19.8023 35.3502 19.0803C33.9848 18.3976 32.0067 17.9375 29.75 17.9375C27.4933 17.9375 25.5152 18.3976 24.1498 19.0803ZM22.9758 16.7325C24.7773 15.8317 27.1742 15.3125 29.75 15.3125C32.3258 15.3125 34.7227 15.8317 36.5242 16.7325C38.2471 17.594 39.8125 19.0269 39.8125 21C39.8125 22.9731 38.2471 24.406 36.5242 25.2675C34.7227 26.1683 32.3258 26.6875 29.75 26.6875C27.1742 26.6875 24.7773 26.1683 22.9758 25.2675C21.2529 24.406 19.6875 22.9731 19.6875 21C19.6875 19.0269 21.2529 17.594 22.9758 16.7325Z" fill="#222222"/>
<path fill-rule="evenodd" clip-rule="evenodd" d="M21 19.6875C21.7249 19.6875 22.3125 20.2751 22.3125 21H19.6875C19.6875 20.2751 20.2751 19.6875 21 19.6875ZM39.8125 21V27.125C39.8125 29.0981 38.2471 30.531 36.5241 31.3925C34.7227 32.2933 32.3258 32.8125 29.75 32.8125C27.1742 32.8125 24.7773 32.2933 22.9759 31.3925C21.2529 30.531 19.6875 29.0981 19.6875 27.125V21H22.3125V27.125C22.3125 27.5681 22.7059 28.3227 24.1498 29.0446C25.5152 29.7274 27.4934 30.1875 29.75 30.1875C32.0066 30.1875 33.9848 29.7274 35.3502 29.0446C36.7941 28.3227 37.1875 27.5681 37.1875 27.125V21H39.8125ZM39.8125 21C39.8125 20.2751 39.2249 19.6875 38.5 19.6875C37.7751 19.6875 37.1875 20.2751 37.1875 21H39.8125Z" fill="#222222"/>
<path fill-rule="evenodd" clip-rule="evenodd" d="M21 25.8125C21.7249 25.8125 22.3125 26.4001 22.3125 27.125H19.6875C19.6875 26.4001 20.2751 25.8125 21 25.8125ZM39.8125 27.125V33.25C39.8125 35.2231 38.2471 36.656 36.5241 37.5175C34.7227 38.4183 32.3258 38.9375 29.75 38.9375C27.1742 38.9375 24.7773 38.4183 22.9759 37.5175C21.2529 36.656 19.6875 35.2231 19.6875 33.25V27.125H22.3125V33.25C22.3125 33.6931 22.7059 34.4477 24.1498 35.1697C25.5152 35.8524 27.4934 36.3125 29.75 36.3125C32.0066 36.3125 33.9848 35.8524 35.3502 35.1697C36.7941 34.4477 37.1875 33.6931 37.1875 33.25V27.125H39.8125ZM39.8125 27.125C39.8125 26.4001 39.2249 25.8125 38.5 25.8125C37.7751 25.8125 37.1875 26.4001 37.1875 27.125H39.8125Z" fill="#222222"/>
</svg>
