<svg width="24" height="24" viewBox="0 0 24 24" fill="none" xmlns="http://www.w3.org/2000/svg">
<path d="M0.562981 0.0937557C0.333506 0.202324 0.128444 0.409591 0.0552075 0.606989C-0.105913 1.03633 0.0991493 1.59398 0.494627 1.80124C0.562981 1.84072 1.35394 2.00851 2.25231 2.17136C3.15067 2.33915 3.8928 2.4872 3.90257 2.49707C3.91722 2.50694 4.54705 4.43669 5.30871 8.32542C6.06549 12.2092 6.72462 15.486 6.76856 15.5995C6.86621 15.8759 7.12986 16.093 7.44234 16.1572C7.61322 16.1917 9.85915 16.2016 14.4047 16.1967L21.118 16.1818L21.3231 16.0683C21.7235 15.8561 21.6746 16.0239 22.9001 10.6547C24.1452 5.22135 24.1207 5.36446 23.8473 5.01408C23.7643 4.91538 23.6032 4.78214 23.486 4.71798L23.2712 4.60941H14.8881H6.50979L6.08014 2.39856C5.68421 1.26322 5.60654 1.36203 5.55772 1.24853C5.44542 1.00672 5.22571 0.819191 4.95229 0.745167C4.65447 0.661273 1.05611 -9.53674e-06 0.894987 -9.53674e-06C0.82175 -9.53674e-06 0.670395 0.044405 0.562981 0.0937557ZM21.8748 6.59326C21.8748 6.6278 21.4793 8.3649 21.0009 10.4573L20.1318 14.2572L14.268 14.272L8.40418 14.2819L8.35535 14.0253C8.32606 13.8822 7.99405 12.1845 7.61811 10.2599C7.24216 8.33036 6.9248 6.70676 6.91015 6.64261L6.88574 6.53404H14.3803C20.3417 6.53404 21.8748 6.54884 21.8748 6.59326Z" fill="#222222"/>
<path d="M8.21628 17.7365C6.44883 18.2053 5.44793 20.0954 6.04359 21.8423C6.81013 24.0927 9.63707 24.7293 11.2824 23.0218C11.8195 22.4592 12.1076 21.793 12.1466 20.9886C12.2638 18.8369 10.2767 17.1936 8.21628 17.7365ZM9.64683 19.7203C10.057 19.9868 10.2523 20.3421 10.2571 20.8257C10.262 21.9213 8.93888 22.4937 8.16257 21.7338C7.89892 21.4722 7.80615 21.2797 7.77686 20.9096C7.73292 20.3668 7.99168 19.9078 8.47505 19.6759C8.81193 19.513 9.35877 19.5328 9.64683 19.7203Z" fill="#222222"/>
<path d="M17.6072 17.7167C16.9969 17.8647 16.3427 18.2842 15.9179 18.8024C15.6787 19.0886 15.3662 19.7252 15.2783 20.1052C15.2441 20.2532 15.2148 20.5888 15.2148 20.8454C15.2197 21.7091 15.5224 22.4345 16.162 23.0711C17.1336 24.0482 18.5203 24.2752 19.7555 23.6534C20.9419 23.0612 21.6206 21.7929 21.479 20.4605C21.396 19.6907 21.1372 19.1626 20.5562 18.5754C20.0924 18.1065 19.6579 17.8499 19.0915 17.7167C18.7009 17.6229 17.993 17.6229 17.6072 17.7167ZM18.8718 19.6561C19.4528 19.9177 19.7457 20.6332 19.5358 21.26C19.443 21.5265 19.1599 21.8275 18.8718 21.9607C18.2078 22.2766 17.4022 21.9114 17.1629 21.1909C16.9628 20.5839 17.2801 19.9029 17.8807 19.6364C18.1101 19.5377 18.6326 19.5475 18.8718 19.6561Z" fill="#222222"/>
</svg>
