<svg width="22" height="18" viewBox="0 0 22 18" fill="none" xmlns="http://www.w3.org/2000/svg">
<path d="M11 17C10.8941 17 10.7882 16.977 10.691 16.9309C10.593 16.8845 8.26485 15.7737 5.9031 13.9101C4.50081 12.8035 3.37953 11.6598 2.57057 10.5107C1.52842 9.03054 1 7.53365 1 6.06176C1 3.27068 3.39798 1 6.34552 1C8.33906 1 10.0811 2.03848 11 3.57433C11.9189 2.03848 13.661 1 15.6545 1C18.602 1 21 3.27068 21 6.06176C21 7.53365 20.4716 9.03054 19.4294 10.5107C18.6204 11.6598 17.4992 12.8035 16.0969 13.9101C13.7352 15.7737 11.407 16.8846 11.309 16.9309C11.2118 16.977 11.1059 17 11 17ZM6.34552 2.30872C4.16013 2.30872 2.38215 3.99232 2.38215 6.06169C2.38215 10.8907 9.42485 14.7931 10.9998 15.6051C12.5741 14.7921 19.6179 10.8837 19.6179 6.06169C19.6179 3.99232 17.8399 2.30872 15.6545 2.30872C13.4691 2.30872 11.6912 3.99232 11.6912 6.06169C11.6912 6.42305 11.3817 6.71612 11.0001 6.71612C10.6185 6.71612 10.309 6.42305 10.309 6.06169C10.3089 3.99238 8.53098 2.30872 6.34552 2.30872Z" fill="#282828" stroke="#282828" stroke-width="0.5"/>
</svg>
