<svg width="24" height="24" viewBox="0 0 24 24" fill="none" xmlns="http://www.w3.org/2000/svg">
<g clip-path="url(#clip0_17725_601)">
<path d="M10.8173 16.9051C8.95674 16.7111 7.27917 16.2528 5.8429 15.1295C5.66469 14.9898 5.48069 14.855 5.31807 14.6989C4.68942 14.0952 4.62607 13.4037 5.12351 12.6911C5.54906 12.0813 6.26343 11.9182 7.00594 12.2683C7.14972 12.3362 7.28671 12.4209 7.41792 12.5119C10.0946 14.3511 13.7718 14.4018 16.4585 12.5946C16.7247 12.3905 17.0093 12.2241 17.3391 12.1391C17.9803 11.9745 18.5783 12.21 18.9224 12.771C19.3155 13.4117 19.3105 14.0371 18.8261 14.5346C18.0831 15.2972 17.1895 15.8489 16.1966 16.234C15.2578 16.598 14.2295 16.7812 13.2117 16.9029C13.3653 17.07 13.4377 17.1522 13.5337 17.2487C14.9157 18.6372 16.3037 20.02 17.6812 21.4127C18.1504 21.8873 18.2485 22.4757 17.9901 23.0277C17.7075 23.631 17.0751 24.0279 16.455 23.9854C16.0622 23.9583 15.7557 23.7627 15.4835 23.4885C14.4406 22.439 13.3781 21.409 12.3564 20.3397C12.059 20.0288 11.916 20.0876 11.6536 20.3575C10.6044 21.4376 9.53813 22.5011 8.46558 23.5586C7.98398 24.0334 7.41088 24.1189 6.85236 23.8477C6.25865 23.5599 5.88086 22.9538 5.91002 22.3448C5.93012 21.9328 6.13272 21.6181 6.4155 21.3358C7.78314 19.9702 9.14702 18.601 10.5114 17.2331C10.6016 17.1422 10.6858 17.0456 10.8173 16.9051Z" fill="white"/>
<path d="M11.9513 12.1479C8.63215 12.1366 5.91044 9.38501 5.92979 6.06054C5.94889 2.69937 8.67237 -0.0092764 12.0242 2.38782e-05C15.3829 0.0090728 18.0787 2.75668 18.0619 6.15279C18.0448 9.47047 15.3042 12.1595 11.9513 12.1479ZM14.9679 6.06858C14.9621 4.41791 13.6475 3.1038 12.0001 3.1023C10.3389 3.10054 9.01246 4.43852 9.02528 6.10427C9.03759 7.74866 10.3635 9.05347 12.0154 9.04744C13.6623 9.04165 14.9734 7.719 14.9679 6.06858Z" fill="white"/>
</g>
<defs>
<clipPath id="clip0_17725_601">
<rect width="24" height="24" fill="white"/>
</clipPath>
</defs>
</svg>
