<svg width="15" height="14" viewBox="0 0 15 14" fill="none" xmlns="http://www.w3.org/2000/svg">
<path d="M13.8519 10.6175C13.3307 9.63219 11.5207 8.56379 11.441 8.51707C11.2084 8.38469 10.9657 8.3146 10.7386 8.3146C10.4009 8.3146 10.1244 8.46931 9.95702 8.75068C9.69225 9.06736 9.36389 9.43751 9.2842 9.49487C8.66746 9.9133 8.18466 9.8658 7.65046 9.3316L4.66902 6.3499C4.1382 5.81908 4.0894 5.33031 4.50497 4.71694C4.56311 4.63673 4.93326 4.30811 5.24994 4.04309C5.45189 3.92291 5.5905 3.74432 5.65124 3.52524C5.73197 3.23374 5.67252 2.89085 5.482 2.55678C5.43709 2.47995 4.36818 0.669695 3.38336 0.148735C3.19958 0.0513952 2.99245 0 2.78479 0C2.44267 0 2.1208 0.13342 1.87888 0.375081L1.22009 1.03361C0.178169 2.07528 -0.198989 3.25607 0.0984803 4.54302C0.346631 5.61557 1.0698 6.75691 2.24825 7.93511L6.06526 11.7521C7.55675 13.2436 8.97869 14 10.2916 14C10.2916 14 10.2916 14 10.2919 14C11.2575 14 12.1577 13.5896 12.9667 12.7805L13.6253 12.122C14.0255 11.722 14.1164 11.1172 13.8519 10.6175Z" fill="#222222"/>
</svg>
