<svg width="22" height="22" viewBox="0 0 22 22" fill="none" xmlns="http://www.w3.org/2000/svg">
<path fill-rule="evenodd" clip-rule="evenodd" d="M17.4017 9.20086C17.4017 4.67891 13.7228 1 9.20086 1C4.67887 1 1 4.67891 1 9.20086C1 13.7228 4.67891 17.4017 9.20086 17.4017C11.1812 17.4017 12.9998 16.6961 14.4186 15.5231L19.8955 21L21 19.8955L15.5231 14.4186C16.6961 12.9998 17.4017 11.1812 17.4017 9.20086ZM15.8402 9.20085C15.8402 12.8615 12.862 15.8396 9.20141 15.8396C5.54078 15.8396 2.56262 12.8615 2.56262 9.20085C2.56262 5.54022 5.54078 2.56206 9.20141 2.56206C12.862 2.56206 15.8402 5.54022 15.8402 9.20085Z" fill="#222222"/>
<path d="M14.4186 15.5231L14.2593 15.3304L14.4346 15.1855L14.5954 15.3463L14.4186 15.5231ZM19.8955 21L20.0722 21.1768L19.8955 21.3536L19.7187 21.1768L19.8955 21ZM21 19.8955L21.1768 19.7187L21.3536 19.8955L21.1768 20.0722L21 19.8955ZM15.5231 14.4186L15.3463 14.5954L15.1855 14.4346L15.3304 14.2593L15.5231 14.4186ZM9.20086 0.75C13.8609 0.75 17.6517 4.54084 17.6517 9.20086H17.1517C17.1517 4.81698 13.5847 1.25 9.20086 1.25V0.75ZM0.75 9.20086C0.75 4.54084 4.5408 0.75 9.20086 0.75V1.25C4.81694 1.25 1.25 4.81698 1.25 9.20086H0.75ZM9.20086 17.6517C4.54083 17.6517 0.75 13.8609 0.75 9.20086H1.25C1.25 13.5847 4.81698 17.1517 9.20086 17.1517V17.6517ZM14.5779 15.7158C13.1161 16.9243 11.2417 17.6517 9.20086 17.6517V17.1517C11.1208 17.1517 12.8835 16.4679 14.2593 15.3304L14.5779 15.7158ZM19.7187 21.1768L14.2418 15.6999L14.5954 15.3463L20.0722 20.8232L19.7187 21.1768ZM21.1768 20.0722L20.0722 21.1768L19.7187 20.8232L20.8232 19.7187L21.1768 20.0722ZM15.6999 14.2418L21.1768 19.7187L20.8232 20.0722L15.3463 14.5954L15.6999 14.2418ZM17.6517 9.20086C17.6517 11.2417 16.9243 13.1161 15.7158 14.5779L15.3304 14.2593C16.4679 12.8835 17.1517 11.1208 17.1517 9.20086H17.6517ZM9.20141 15.5896C12.724 15.5896 15.5902 12.7234 15.5902 9.20085H16.0902C16.0902 12.9995 13.0001 16.0896 9.20141 16.0896V15.5896ZM2.81262 9.20085C2.81262 12.7234 5.67885 15.5896 9.20141 15.5896V16.0896C5.40271 16.0896 2.31262 12.9995 2.31262 9.20085H2.81262ZM9.20141 2.81206C5.67885 2.81206 2.81262 5.67829 2.81262 9.20085H2.31262C2.31262 5.40215 5.40271 2.31206 9.20141 2.31206V2.81206ZM15.5902 9.20085C15.5902 5.67829 12.724 2.81206 9.20141 2.81206V2.31206C13.0001 2.31206 16.0902 5.40215 16.0902 9.20085H15.5902Z" fill="black"/>
</svg>
