<svg width="42" height="42" viewBox="0 0 42 42" fill="none" xmlns="http://www.w3.org/2000/svg">
<path d="M15.9704 2.86779C16.5714 2.70145 17.2064 2.98085 17.4897 3.53627C18.1426 4.81593 19.4707 5.68759 21 5.68759C22.5293 5.68759 23.8574 4.81593 24.5103 3.53627C24.7936 2.98085 25.4286 2.70145 26.0296 2.86779C28.9773 3.68378 31.6328 5.19829 33.8072 7.22014C34.2318 7.61498 34.3471 8.24167 34.0907 8.76173C33.8329 9.28444 33.6875 9.87341 33.6875 10.5001C33.6875 12.6747 35.4504 14.4376 37.625 14.4376L37.6799 14.4372C38.2602 14.4289 38.777 14.8026 38.9509 15.3562C39.511 17.1395 39.8125 19.0358 39.8125 21.0001C39.8125 22.2965 39.6812 23.5637 39.4306 24.7885C39.2959 25.4471 38.6854 25.8974 38.0164 25.8317C37.8881 25.8191 37.7576 25.8126 37.625 25.8126C35.4504 25.8126 33.6875 27.5755 33.6875 29.7501C33.6875 30.718 34.0351 31.6014 34.6137 32.2872C35.0472 32.801 35.0224 33.5593 34.5563 34.0437C32.336 36.3509 29.5305 38.0937 26.3762 39.0328C25.6913 39.2367 24.9691 38.8552 24.7515 38.1745C24.2435 36.5855 22.7541 35.4376 21 35.4376C19.2459 35.4376 17.7565 36.5855 17.2485 38.1745C17.0309 38.8552 16.3087 39.2367 15.6238 39.0328C12.4695 38.0937 9.66401 36.3509 7.44368 34.0437C6.97752 33.5593 6.95273 32.801 7.38625 32.2872C7.96493 31.6014 8.3125 30.718 8.3125 29.7501C8.3125 27.5755 6.54962 25.8126 4.375 25.8126C4.24241 25.8126 4.11185 25.8191 3.98359 25.8317C3.3146 25.8974 2.70408 25.4471 2.56937 24.7885C2.31884 23.5637 2.1875 22.2965 2.1875 21.0001C2.1875 19.0359 2.48898 17.1395 3.04914 15.3562C3.22303 14.8026 3.73983 14.4289 4.32005 14.4372L4.375 14.4376C6.54962 14.4376 8.3125 12.6747 8.3125 10.5001C8.3125 9.87342 8.16705 9.28444 7.90933 8.76173C7.65292 8.24167 7.76815 7.61498 8.19278 7.22014C10.3672 5.19829 13.0227 3.68378 15.9704 2.86779ZM10.6448 8.55742C10.8352 9.17224 10.9375 9.825 10.9375 10.5001C10.9375 13.8066 8.49207 16.542 5.31112 16.9963C4.98571 18.2756 4.8125 19.6168 4.8125 21.0001C4.8125 21.7515 4.86361 22.4904 4.96242 23.2135C8.31159 23.5106 10.9375 26.3237 10.9375 29.7501C10.9375 30.9172 10.6319 32.0148 10.097 32.9652C11.5963 34.3323 13.3525 35.4207 15.2838 36.1498C16.4099 34.1582 18.5466 32.8126 21 32.8126C23.4534 32.8126 25.5901 34.1582 26.7162 36.1498C28.6475 35.4207 30.4037 34.3323 31.903 32.9652C31.3681 32.0148 31.0625 30.9172 31.0625 29.7501C31.0625 26.3237 33.6884 23.5106 37.0376 23.2135C37.1364 22.4904 37.1875 21.7515 37.1875 21.0001C37.1875 19.6168 37.0143 18.2757 36.6889 16.9963C33.5079 16.542 31.0625 13.8066 31.0625 10.5001C31.0625 9.825 31.1648 9.17224 31.3552 8.55743C29.8581 7.31001 28.1333 6.32833 26.2532 5.68364C25.0572 7.27828 23.1502 8.31259 21 8.31259C18.8498 8.31259 16.9428 7.27828 15.7468 5.68364C13.8667 6.32833 12.1419 7.31 10.6448 8.55742Z" fill="#222222"/>
<path d="M13.5625 21.0001C13.5625 16.8925 16.8924 13.5626 21 13.5626C25.1076 13.5626 28.4375 16.8925 28.4375 21.0001C28.4375 25.1077 25.1076 28.4376 21 28.4376C16.8924 28.4376 13.5625 25.1077 13.5625 21.0001ZM21 16.1876C18.3421 16.1876 16.1875 18.3422 16.1875 21.0001C16.1875 23.658 18.3421 25.8126 21 25.8126C23.6579 25.8126 25.8125 23.658 25.8125 21.0001C25.8125 18.3422 23.6579 16.1876 21 16.1876Z" fill="#222222"/>
</svg>
