<svg width="42" height="42" viewBox="0 0 42 42" fill="none" xmlns="http://www.w3.org/2000/svg">
<path fill-rule="evenodd" clip-rule="evenodd" d="M5.6875 30.625C5.6875 27.9672 7.84212 25.8125 10.5 25.8125C13.1578 25.8125 15.3125 27.9672 15.3125 30.625C15.3125 33.2828 13.1578 35.4375 10.5 35.4375C7.84212 35.4375 5.6875 33.2828 5.6875 30.625ZM10.5 28.4375C9.29189 28.4375 8.3125 29.4169 8.3125 30.625C8.3125 31.8331 9.29189 32.8125 10.5 32.8125C11.7081 32.8125 12.6875 31.8331 12.6875 30.625C12.6875 29.4169 11.7081 28.4375 10.5 28.4375Z" fill="#222222"/>
<path fill-rule="evenodd" clip-rule="evenodd" d="M25.8125 30.625C25.8125 27.9672 27.9672 25.8125 30.625 25.8125C33.2828 25.8125 35.4375 27.9672 35.4375 30.625C35.4375 33.2828 33.2828 35.4375 30.625 35.4375C27.9672 35.4375 25.8125 33.2828 25.8125 30.625ZM30.625 28.4375C29.4169 28.4375 28.4375 29.4169 28.4375 30.625C28.4375 31.8331 29.4169 32.8125 30.625 32.8125C31.8331 32.8125 32.8125 31.8331 32.8125 30.625C32.8125 29.4169 31.8331 28.4375 30.625 28.4375Z" fill="#222222"/>
<path fill-rule="evenodd" clip-rule="evenodd" d="M0.4375 9.625C0.4375 8.90013 1.02513 8.3125 1.75 8.3125H27.125C27.8499 8.3125 28.4375 8.90013 28.4375 9.625V30.625C28.4375 31.3499 27.8499 31.9375 27.125 31.9375H14C13.2751 31.9375 12.6875 31.3499 12.6875 30.625C12.6875 29.9001 13.2751 29.3125 14 29.3125H25.8125V10.9375H3.0625V29.3125H7C7.72487 29.3125 8.3125 29.9001 8.3125 30.625C8.3125 31.3499 7.72487 31.9375 7 31.9375H1.75C1.02513 31.9375 0.4375 31.3499 0.4375 30.625V9.625Z" fill="#222222"/>
<path fill-rule="evenodd" clip-rule="evenodd" d="M25.8125 15.75C25.8125 15.0251 26.4001 14.4375 27.125 14.4375H34.625C35.0362 14.4375 35.4237 14.6303 35.6718 14.9583L41.2968 22.3958C41.4692 22.6237 41.5625 22.9017 41.5625 23.1875V30.625C41.5625 31.3499 40.9749 31.9375 40.25 31.9375H34.8348C34.1099 31.9375 33.5223 31.3499 33.5223 30.625C33.5223 29.9001 34.1099 29.3125 34.8348 29.3125H38.9375V23.6279L33.972 17.0625H28.4375V30.625C28.4375 31.3499 27.8499 31.9375 27.125 31.9375C26.4001 31.9375 25.8125 31.3499 25.8125 30.625V15.75Z" fill="#222222"/>
</svg>
