<svg width="25" height="25" viewBox="0 0 25 25" fill="none" xmlns="http://www.w3.org/2000/svg">
<path d="M15.625 7.03125H14.0625V3.125H3.125V20.3125H12.5V21.0938C12.5 21.301 12.5823 21.4997 12.7288 21.6462C12.8753 21.7927 13.074 21.875 13.2812 21.875H2.34375C2.13655 21.875 1.93784 21.7927 1.79132 21.6462C1.64481 21.4997 1.5625 21.301 1.5625 21.0938V2.34375C1.5625 2.13655 1.64481 1.93784 1.79132 1.79132C1.93784 1.64481 2.13655 1.5625 2.34375 1.5625H14.8438C15.051 1.5625 15.2497 1.64481 15.3962 1.79132C15.5427 1.93784 15.625 2.13655 15.625 2.34375V7.03125Z" fill="#222222" stroke="#222222" stroke-width="0.3"/>
<path d="M3.125 7.8125V20.3125H21.875V7.8125H3.125ZM2.34375 6.25H22.6562C22.8635 6.25 23.0622 6.33231 23.2087 6.47882C23.3552 6.62534 23.4375 6.82405 23.4375 7.03125V21.0938C23.4375 21.301 23.3552 21.4997 23.2087 21.6462C23.0622 21.7927 22.8635 21.875 22.6562 21.875H2.34375C2.13655 21.875 1.93784 21.7927 1.79132 21.6462C1.64481 21.4997 1.5625 21.301 1.5625 21.0938V7.03125C1.5625 6.82405 1.64481 6.62534 1.79132 6.47882C1.93784 6.33231 2.13655 6.25 2.34375 6.25Z" fill="#222222" stroke="#222222" stroke-width="0.3"/>
<path d="M17.1875 15.625C16.7731 15.625 16.3757 15.4604 16.0826 15.1674C15.7896 14.8743 15.625 14.4769 15.625 14.0625C15.625 13.6481 15.7896 13.2507 16.0826 12.9576C16.3757 12.6646 16.7731 12.5 17.1875 12.5C17.6019 12.5 17.9993 12.6646 18.2924 12.9576C18.5854 13.2507 18.75 13.6481 18.75 14.0625C18.75 14.4769 18.5854 14.8743 18.2924 15.1674C17.9993 15.4604 17.6019 15.625 17.1875 15.625Z" fill="black"/>
</svg>
